# xmcd
#
# Track frame offsets:
#	150
#	13867
#	22550
#	38032
#	51970
#	67330
#	80197
#	98557
#	111632
#	124285
#
# Disc length: 1862 seconds
#
# Revision: 1
# Processed by: cddbd v1.5.1PL0 Copyright (c) Steve Scherf et al.
# Submitted via: audiograbber 1.83.01
#
DISCID=8807440a
DTITLE=Nilüfer - Selam Söyle
DYEAR=1976
DGENRE=Ballad
TTITLE0=Selam Söyle
TTITLE1=Oh Ya
TTITLE2=Son Arzum
TTITLE3=Kaderime Kaderime
TTITLE4=Bosver
TTITLE5=Kim Kime Dum Duma
TTITLE6=Askta Gurur Olmaz
TTITLE7=Ara Sira Bazi Bazi
TTITLE8=Ali
TTITLE9=Bastan Anlat
EXTD=
EXTT0=Remastered and distributed on CD in 2004
EXTT1=
EXTT2=
EXTT3=
EXTT4=
EXTT5=
EXTT6=
EXTT7=
EXTT8=
EXTT9=
PLAYORDER=
